<svg xmlns="http://www.w3.org/2000/svg" version="1.1" xmlns:xlink="http://www.w3.org/1999/xlink" xmlns:svgjs="http://svgjs.dev/svgjs" viewBox="0 0 800 800"><g stroke-width="45" stroke="hsl(308, 33%, 58%)" fill="none"><polygon points="-22.5,22.5 22.5,-22.5 822.5,777.5 777.5,822.5" stroke="none" fill="hsl(308, 33%, 58%)" clip-path="url(&quot;#SvgjsClipPath1772&quot;)" opacity="0.25" transform="translate(0 -583)"></polygon><polygon points="-22.5,22.5 22.5,-22.5 822.5,777.5 777.5,822.5" stroke="none" fill="hsl(308, 33%, 58%)" clip-path="url(&quot;#SvgjsClipPath1773&quot;)" transform="translate(0 -694)"></polygon><polygon points="-22.5,22.5 22.5,-22.5 822.5,777.5 777.5,822.5" stroke="none" fill="hsl(308, 33%, 58%)" clip-path="url(&quot;#SvgjsClipPath1772&quot;)" opacity="0.25" transform="translate(0 -463)"></polygon><polygon points="-22.5,22.5 22.5,-22.5 822.5,777.5 777.5,822.5" stroke="none" fill="hsl(308, 33%, 58%)" clip-path="url(&quot;#SvgjsClipPath1773&quot;)" transform="translate(0 -574)"></polygon><polygon points="-22.5,22.5 22.5,-22.5 822.5,777.5 777.5,822.5" stroke="none" fill="hsl(308, 33%, 58%)" clip-path="url(&quot;#SvgjsClipPath1772&quot;)" opacity="0.25" transform="translate(0 -343)"></polygon><polygon points="-22.5,22.5 22.5,-22.5 822.5,777.5 777.5,822.5" stroke="none" fill="hsl(308, 33%, 58%)" clip-path="url(&quot;#SvgjsClipPath1773&quot;)" transform="translate(0 -454)"></polygon><polygon points="-22.5,22.5 22.5,-22.5 822.5,777.5 777.5,822.5" stroke="none" fill="hsl(308, 33%, 58%)" clip-path="url(&quot;#SvgjsClipPath1772&quot;)" opacity="0.25" transform="translate(0 -223)"></polygon><polygon points="-22.5,22.5 22.5,-22.5 822.5,777.5 777.5,822.5" stroke="none" fill="hsl(308, 33%, 58%)" clip-path="url(&quot;#SvgjsClipPath1773&quot;)" transform="translate(0 -334)"></polygon><polygon points="-22.5,22.5 22.5,-22.5 822.5,777.5 777.5,822.5" stroke="none" fill="hsl(308, 33%, 58%)" clip-path="url(&quot;#SvgjsClipPath1772&quot;)" opacity="0.25" transform="translate(0 -103)"></polygon><polygon points="-22.5,22.5 22.5,-22.5 822.5,777.5 777.5,822.5" stroke="none" fill="hsl(308, 33%, 58%)" clip-path="url(&quot;#SvgjsClipPath1773&quot;)" transform="translate(0 -214)"></polygon><polygon points="-22.5,22.5 22.5,-22.5 822.5,777.5 777.5,822.5" stroke="none" fill="hsl(308, 33%, 58%)" clip-path="url(&quot;#SvgjsClipPath1772&quot;)" opacity="0.25" transform="translate(0 17)"></polygon><polygon points="-22.5,22.5 22.5,-22.5 822.5,777.5 777.5,822.5" stroke="none" fill="hsl(308, 33%, 58%)" clip-path="url(&quot;#SvgjsClipPath1773&quot;)" transform="translate(0 -94)"></polygon></g><defs><clipPath id="SvgjsClipPath1772"><rect width="66.66666666666667" height="800" x="0" y="0"></rect><rect width="66.66666666666667" height="800" x="133.33333333333334" y="0"></rect><rect width="66.66666666666667" height="800" x="266.6666666666667" y="0"></rect><rect width="66.66666666666667" height="800" x="400" y="0"></rect><rect width="66.66666666666667" height="800" x="533.3333333333334" y="0"></rect><rect width="66.66666666666667" height="800" x="666.6666666666667" y="0"></rect><rect width="66.66666666666667" height="800" x="800" y="0"></rect><rect width="66.66666666666667" height="800" x="933.3333333333334" y="0"></rect><rect width="66.66666666666667" height="800" x="1066.6666666666667" y="0"></rect><rect width="66.66666666666667" height="800" x="1200" y="0"></rect><rect width="66.66666666666667" height="800" x="1333.3333333333335" y="0"></rect><rect width="66.66666666666667" height="800" x="1466.6666666666667" y="0"></rect><rect width="66.66666666666667" height="800" x="1600" y="0"></rect></clipPath><clipPath id="SvgjsClipPath1773"><rect width="66.66666666666667" height="800" x="66.66666666666667" y="0"></rect><rect width="66.66666666666667" height="800" x="200" y="0"></rect><rect width="66.66666666666667" height="800" x="333.3333333333333" y="0"></rect><rect width="66.66666666666667" height="800" x="466.6666666666667" y="0"></rect><rect width="66.66666666666667" height="800" x="600.0000000000001" y="0"></rect><rect width="66.66666666666667" height="800" x="733.3333333333334" y="0"></rect><rect width="66.66666666666667" height="800" x="866.6666666666667" y="0"></rect><rect width="66.66666666666667" height="800" x="1000.0000000000001" y="0"></rect><rect width="66.66666666666667" height="800" x="1133.3333333333333" y="0"></rect><rect width="66.66666666666667" height="800" x="1266.6666666666667" y="0"></rect><rect width="66.66666666666667" height="800" x="1400" y="0"></rect><rect width="66.66666666666667" height="800" x="1533.3333333333333" y="0"></rect></clipPath></defs></svg>